# xmcd
#
# Track frame offsets: 
#        150
#        18213
#        38815
#        55160
#        83940
#        99715
#        111956
#        128592
#        143966
#        169587
#        186071
#        231595
#        252200
#        270646
#        286537
#        305460
#        326007
#        338759
#
# Disc length: 4789 seconds
#
# Revision: 3
# Processed by: cddbd v1.5.2PL0 Copyright (c) Steve Scherf et al.
# Submitted via: ExactAudioCopy v1.3
#
DISCID=f712b312
DTITLE=Various Artist - Akella Presents - vol. 04 - Rockin' Blues  CD
DTITLE=1
DYEAR=2013
DGENRE=Blues
TTITLE0=The BEAT DADDYS - Livin' This Love
TTITLE1=STEVE GANNON - To Through With You
TTITLE2=MIDNIGHT CREEPERS - Luberta
TTITLE3=SAVOY BROWN - Bad Shape
TTITLE4=DEAN HALL - I Know Something Bout the Blues
TTITLE5=CHIP VANDIVER - Head on Collision
TTITLE6=GEORGE THOROGOOD - Tail Dragger
TTITLE7=HYPNOTICS - WomanIzer
TTITLE8=BIRD DOGS - Bye Bye Baby
TTITLE9=BILL WHARTON - Swamp Boogie
TTITLE10=BRYAN LEE - Six String Therapy
TTITLE11=ROCKY SHELTON - Twist of Fate
TTITLE12=SCOTT ELLISON - Crowlin' on My Kness
TTITLE13=WILL SMOKEY LOGG - El Madrid
TTITLE14=Dr. RAGE and The UPPERCUTS - The Beast
TTITLE15=HYPNOTICS - Blues Patrol
TTITLE16=JIM SUHLER - Where Were You When the Lights Went Out
TTITLE17=STEVE BASSET - Jesus Just Left Chicago
EXTD=
EXTT0=
EXTT1=
EXTT2=
EXTT3=
EXTT4=
EXTT5=
EXTT6=
EXTT7=
EXTT8=
EXTT9=
EXTT10=
EXTT11=
EXTT12=
EXTT13=
EXTT14=
EXTT15=
EXTT16=
EXTT17=
PLAYORDER=
